/* XPM */
static char *dummy[]={
"32 32 3 1",
". c None",
"# c #000000",
"a c #ffffff",
"................................",
"................................",
"................................",
"................................",
"................................",
"................................",
"................................",
"................................",
".............######.............",
"............##aaaa##............",
"...........##aaaaaa##...........",
"..........##aaaaaaaa##..........",
".........##aaaaaaaaa###.........",
".........#aaaaaaaaaa###.........",
".........#aaaaaaaaaa###.........",
".........#aaaaaaaaaa###.........",
".........#aaaaaaaaaa###.........",
".........##aaaaaaaaa###.........",
"..........##aaaaaaaa##..........",
"...........##aaaaaa##...........",
"............##aaaa##............",
".............######.............",
"................................",
"................................",
"................................",
"................................",
"................................",
"................................",
"................................",
"................................",
"................................",
"................................"};
