/* XPM */
static char *dummy[]={
"32 32 3 1",
". c None",
"# c #000000",
"a c #ffffff",
"................................",
"................................",
"................................",
"................................",
"................................",
"................................",
"................................",
"................................",
".............######.............",
"............##aaa###............",
"...........##aaaa####...........",
"..........##aaaaa#####..........",
".........##aaaaaa######.........",
".........#aaaaaaa######.........",
".........#aaaaaaa######.........",
".........#aaaaaaa######.........",
".........#aaaaaaa######.........",
".........##aaaaaa######.........",
"..........##aaaaa#####..........",
"...........##aaaa####...........",
"............##aaa###............",
".............######.............",
"................................",
"................................",
"................................",
"................................",
"................................",
"................................",
"................................",
"................................",
"................................",
"................................"};
