/* XPM */
static char *dummy[]={
"32 32 3 1",
". c None",
"# c #282828",
"a c #fbf1c7",
"................................",
"................................",
"................................",
"................................",
"................................",
"................................",
"................................",
"................................",
".............######.............",
"............########............",
"...........##a#######...........",
"..........##aa########..........",
".........##aaa#########.........",
".........#aaaa#########.........",
".........#aaaa#########.........",
".........#aaaa#########.........",
".........#aaaa#########.........",
".........##aaa#########.........",
"..........##aa########..........",
"...........##a#######...........",
"............########............",
".............######.............",
"................................",
"................................",
"................................",
"................................",
"................................",
"................................",
"................................",
"................................",
"................................",
"................................"};
