/* XPM */
static char *dummy[]={
"32 32 3 1",
". c None",
"# c #000000",
"a c #ffffff",
"................................",
"................................",
"................................",
"................................",
"................................",
"................................",
"................................",
"................................",
".............######.............",
"............##aaaa##............",
"...........##aaaaaa##...........",
"..........##aaaaaaa###..........",
".........##aaaaaaaa####.........",
".........#aaaaaaaaa####.........",
".........#aaaaaaaaa####.........",
".........#aaaaaaaaa####.........",
".........#aaaaaaaaa####.........",
".........##aaaaaaaa####.........",
"..........##aaaaaaa###..........",
"...........##aaaaaa##...........",
"............##aaaa##............",
".............######.............",
"................................",
"................................",
"................................",
"................................",
"................................",
"................................",
"................................",
"................................",
"................................",
"................................"};
