/* XPM */
static char *dummy[]={
"32 32 3 1",
". c None",
"# c #458588",
"a c #3c3836",
"................................",
"...............##...............",
"..............####..............",
"..............####..............",
".............######.............",
".............######.............",
".............#######............",
"..............######............",
"...........##.#######...........",
"...........###..#####...........",
"..........############..........",
"..........############..........",
".........##############.........",
".........######..######.........",
"........######....######........",
"........#####......#####........",
".......######......###.##.......",
"......######........###.##......",
"......######........####........",
".....#######........#######.....",
".....#######........#######.....",
"....#######..........#######....",
"....#####..............#####....",
"...#####................#####...",
"...###....................###...",
"..##........................##..",
"................................",
"..a........a...#..#.............",
".a.a.aa.aa.a...#....###.#.#.#.#.",
".aaa.a..a..aaa.#..#.#.#.#.#..#..",
".a.a.a..aa.a.a.##.#.#.#.###.#.#.",
"................................"};
