/* XPM */
static char *dummy[]={
"32 32 3 1",
". c None",
"# c #000000",
"a c #ffffff",
"................................",
"................................",
"................................",
"................................",
"................................",
"................................",
"................................",
"................................",
"................................",
"...#######################......",
"...#aaaaaaaaaaaaaaaaaaaaa#......",
"...#a#########aaaaaaaaaaa#......",
"...#a#########aaaaaaaaaaa##.....",
"...#a#########aaaaaaaaaaaa#.....",
"...#a#########aaaaaaaaaaaa#.....",
"...#a#########aaaaaaaaaaaa#.....",
"...#a#########aaaaaaaaaaaa#.....",
"...#a#########aaaaaaaaaaa##.....",
"...#a#########aaaaaaaaaaa#......",
"...#aaaaaaaaaaaaaaaaaaaaa#......",
"...#######################......",
"................................",
"................................",
"................................",
"................................",
"................................",
"................................",
"................................",
"................................",
"................................",
"................................",
"................................"};
