/* XPM */
static char *dummy[]={
"32 32 3 1",
". c None",
"# c #000000",
"a c #ffffff",
"................................",
"................................",
"................................",
"................................",
"................................",
"................................",
"................................",
"................................",
"................................",
"...#######################......",
"...#aaaaaaaaaaaaaaaaaaaaa#......",
"...#a#aaaaaaaaaaaaaaaaaaa#......",
"...#a#aaaaaaaaaaaaaaaaaaa##.....",
"...#a#aaaaaaaaaaaaaaaaaaaa#.....",
"...#a#aaaaaaaaaaaaaaaaaaaa#.....",
"...#a#aaaaaaaaaaaaaaaaaaaa#.....",
"...#a#aaaaaaaaaaaaaaaaaaaa#.....",
"...#a#aaaaaaaaaaaaaaaaaaa##.....",
"...#a#aaaaaaaaaaaaaaaaaaa#......",
"...#aaaaaaaaaaaaaaaaaaaaa#......",
"...#######################......",
"................................",
"................................",
"................................",
"................................",
"................................",
"................................",
"................................",
"................................",
"................................",
"................................",
"................................"};
