/* XPM */
static char *dummy[]={
"32 32 3 1",
". c None",
"# c #000000",
"a c #ffffff",
"................................",
"................................",
"................................",
"................................",
"................................",
"................................",
"................................",
"................................",
"................................",
"...#######################......",
"...#aaaaaaaaaaaaaaaaaaaaa#......",
"...#a################aaaa#......",
"...#a#########aaaaaaaaaaa##.....",
"...#a#########aaaaaaa#aaaa#.....",
"...#a#aaaaaaaaaaaaaaaaaaaa#.....",
"...#a#aaaaaaaaaaaaaaaaaaaa#.....",
"...#a#########aaaaaaa#aaaa#.....",
"...#a#########aaaaaaaaaaa##.....",
"...#a################aaaa#......",
"...#aaaaaaaaaaaaaaaaaaaaa#......",
"...#######################......",
"................................",
"................................",
"................................",
"................................",
"................................",
"................................",
"................................",
"................................",
"................................",
"................................",
"................................"};
