/* XPM */
static char *dummy[]={
"32 32 3 1",
". c None",
"# c #000000",
"a c #ffffff",
"................................",
"................................",
"................................",
"................................",
"................................",
"................................",
"................................",
"................................",
"................................",
"...#######################......",
"...#aaaaaaaaaaaaaaaaaaaaa#......",
"...#a#aaaaaaaaaaaaaaaaaaa#......",
"...#a#aaaaaaaa#######aaaa##.....",
"...#a#aaaaaaaa########aaaa#.....",
"...#a################aaaaa#.....",
"...#a################aaaaa#.....",
"...#a#aaaaaaaa########aaaa#.....",
"...#a#aaaaaaaa#######aaaa##.....",
"...#a#aaaaaaaaaaaaaaaaaaa#......",
"...#aaaaaaaaaaaaaaaaaaaaa#......",
"...#######################......",
"................................",
"................................",
"................................",
"................................",
"................................",
"................................",
"................................",
"................................",
"................................",
"................................",
"................................"};
