/* XPM */
static char *dummy[]={
"32 32 3 1",
". c None",
"# c #000000",
"a c #ffffff",
"................................",
"................................",
"................................",
"................................",
"................................",
"................................",
"................................",
"................................",
"................................",
"...#######################......",
"...#aaaaaaaaaaaaaaaaaaaaa#......",
"...#a###################a#......",
"...#a#########aaaaaaa###a##.....",
"...#a#########aaaaaaaa##aa#.....",
"...#a#aaaaaaaaaaaaaaa###aa#.....",
"...#a#aaaaaaaaaaaaaaa###aa#.....",
"...#a#########aaaaaaaa##aa#.....",
"...#a#########aaaaaaa###a##.....",
"...#a###################a#......",
"...#aaaaaaaaaaaaaaaaaaaaa#......",
"...#######################......",
"................................",
"................................",
"................................",
"................................",
"................................",
"................................",
"................................",
"................................",
"................................",
"................................",
"................................"};
