/* XPM */
static char *dummy[]={
"32 32 3 1",
". c None",
"# c #000000",
"a c #ffffff",
"................................",
"............########............",
"..........###aaaaaa###..........",
"........###aaa####aaa###........",
"......###aaa########aaa###......",
".....##aaa##########aaaaa##.....",
"....##aa############aaaaaa##....",
"....#aa#############aaaaaaa#....",
"...##a##############aaaaaaa##...",
"...#aa##############aaaaaaaa#...",
"..##a###############aaaaaaaa##..",
"..#aa###############aaaaaaaaa#..",
".##a################aaaaaaaaa##.",
".#aa################aaaaaaaaaa#.",
".#a#################aaaaaaaaaa#.",
".#a#################aaaaaaaaaa#.",
".#a#################aaaaaaaaaa#.",
".#a#################aaaaaaaaaa#.",
".#aa################aaaaaaaaaa#.",
".##a################aaaaaaaaa##.",
"..#aa###############aaaaaaaaa#..",
"..##a###############aaaaaaaa##..",
"...#aa##############aaaaaaaa#...",
"...##a##############aaaaaaa##...",
"....#aa#############aaaaaaa#....",
"....##aa############aaaaaa##....",
".....##aaa##########aaaaa##.....",
"......###aaa########aaa###......",
"........###aaa####aaa###........",
"..........###aaaaaa###..........",
"............########............",
"................................"};
