/* XPM */
static char *dummy[]={
"32 32 3 1",
". c None",
"# c #000000",
"a c #ffffff",
"................................",
"............########............",
"..........###aaaaaa###..........",
"........###aaaaaaaaaa###........",
"......###aaaaaaaaaaaaaa###......",
".....##aaaaaaaaaaaaaaaaaa##.....",
"....##aaaaaaaaaaaaaaaaaaaa##....",
"....#aa#aaaaaaaaaaaaaaaaaaa#....",
"...##a##aaaaaaaaaaaaaaaaaaa##...",
"...#aa##aaaaaaaaaaaaaaaaaaaa#...",
"..##a###aaaaaaaaaaaaaaaaaaaa##..",
"..#aa###aaaaaaaaaaaaaaaaaaaaa#..",
".##a####aaaaaaaaaaaaaaaaaaaaa##.",
".#aa####aaaaaaaaaaaaaaaaaaaaaa#.",
".#a#####aaaaaaaaaaaaaaaaaaaaaa#.",
".#a#####aaaaaaaaaaaaaaaaaaaaaa#.",
".#a#####aaaaaaaaaaaaaaaaaaaaaa#.",
".#a#####aaaaaaaaaaaaaaaaaaaaaa#.",
".#aa####aaaaaaaaaaaaaaaaaaaaaa#.",
".##a####aaaaaaaaaaaaaaaaaaaaa##.",
"..#aa###aaaaaaaaaaaaaaaaaaaaa#..",
"..##a###aaaaaaaaaaaaaaaaaaaa##..",
"...#aa##aaaaaaaaaaaaaaaaaaaa#...",
"...##a##aaaaaaaaaaaaaaaaaaa##...",
"....#aa#aaaaaaaaaaaaaaaaaaa#....",
"....##aaaaaaaaaaaaaaaaaaaa##....",
".....##aaaaaaaaaaaaaaaaaa##.....",
"......###aaaaaaaaaaaaaa###......",
"........###aaaaaaaaaa###........",
"..........###aaaaaa###..........",
"............########............",
"................................"};
