/* XPM */
static char *dummy[]={
"32 32 3 1",
". c None",
"# c #000000",
"a c #ffffff",
"................................",
"................................",
"................................",
"................................",
"................................",
"................................",
"................................",
"................................",
".............######.............",
"............##aa####............",
"...........##aaa#####...........",
"..........##aaaa######..........",
".........##aaaaa#######.........",
".........#aaaaaa#######.........",
".........#aaaaaa#######.........",
".........#aaaaaa#######.........",
".........#aaaaaa#######.........",
".........##aaaaa#######.........",
"..........##aaaa######..........",
"...........##aaa#####...........",
"............##aa####............",
".............######.............",
"................................",
"................................",
"................................",
"................................",
"................................",
"................................",
"................................",
"................................",
"................................",
"................................"};
