/* XPM */
static char *dummy[]={
"32 32 3 1",
". c None",
"# c #000000",
"a c #ffffff",
"................................",
"............########............",
"..........###aaaaaa###..........",
"........###aaa####aaa###........",
"......###aaa########aaa###......",
".....##aaa############aaa##.....",
"....##aa################aa##....",
"....#aa##################aa#....",
"...##a####################a##...",
"...#aa####################aa#...",
"..##a######################a##..",
"..#aa######################aa#..",
".##a#######################aa##.",
".#aa#######################aaa#.",
".#a########################aaa#.",
".#a########################aaa#.",
".#a########################aaa#.",
".#a########################aaa#.",
".#aa#######################aaa#.",
".##a#######################aa##.",
"..#aa######################aa#..",
"..##a######################a##..",
"...#aa####################aa#...",
"...##a####################a##...",
"....#aa##################aa#....",
"....##aa################aa##....",
".....##aaa############aaa##.....",
"......###aaa########aaa###......",
"........###aaa####aaa###........",
"..........###aaaaaa###..........",
"............########............",
"................................"};
