/* XPM */
static char *dummy[]={
"32 32 3 1",
". c None",
"# c #000000",
"a c #ffffff",
"................................",
"............########............",
"..........###aaaaaa###..........",
"........###aaa####aaa###........",
"......###aaa########aaa###......",
".....##aaa############aaa##.....",
"....##aa################aa##....",
"....#aa##################aa#....",
"...##a###################aa##...",
"...#aa###################aaa#...",
"..##a####################aaa##..",
"..#aa####################aaaa#..",
".##a#####################aaaa##.",
".#aa#####################aaaaa#.",
".#a######################aaaaa#.",
".#a######################aaaaa#.",
".#a######################aaaaa#.",
".#a######################aaaaa#.",
".#aa#####################aaaaa#.",
".##a#####################aaaa##.",
"..#aa####################aaaa#..",
"..##a####################aaa##..",
"...#aa###################aaa#...",
"...##a###################aa##...",
"....#aa##################aa#....",
"....##aa################aa##....",
".....##aaa############aaa##.....",
"......###aaa########aaa###......",
"........###aaa####aaa###........",
"..........###aaaaaa###..........",
"............########............",
"................................"};
