/* XPM */
static char *dummy[]={
"32 32 3 1",
". c None",
"# c #000000",
"a c #ffffff",
"................................",
"............########............",
"..........###aaaaaa###..........",
"........###aaa###aaaa###........",
"......###aaa#####aaaaaa###......",
".....##aaa#######aaaaaaaa##.....",
"....##aa#########aaaaaaaaa##....",
"....#aa##########aaaaaaaaaa#....",
"...##a###########aaaaaaaaaa##...",
"...#aa###########aaaaaaaaaaa#...",
"..##a############aaaaaaaaaaa##..",
"..#aa############aaaaaaaaaaaa#..",
".##a#############aaaaaaaaaaaa##.",
".#aa#############aaaaaaaaaaaaa#.",
".#a##############aaaaaaaaaaaaa#.",
".#a##############aaaaaaaaaaaaa#.",
".#a##############aaaaaaaaaaaaa#.",
".#a##############aaaaaaaaaaaaa#.",
".#aa#############aaaaaaaaaaaaa#.",
".##a#############aaaaaaaaaaaa##.",
"..#aa############aaaaaaaaaaaa#..",
"..##a############aaaaaaaaaaa##..",
"...#aa###########aaaaaaaaaaa#...",
"...##a###########aaaaaaaaaa##...",
"....#aa##########aaaaaaaaaa#....",
"....##aa#########aaaaaaaaa##....",
".....##aaa#######aaaaaaaa##.....",
"......###aaa#####aaaaaa###......",
"........###aaa###aaaa###........",
"..........###aaaaaa###..........",
"............########............",
"................................"};
