/* XPM */
static char *dummy[]={
"32 32 3 1",
". c None",
"# c #000000",
"a c #ffffff",
"................................",
"............########............",
"..........###aaaaaa###..........",
"........###aaa#aaaaaa###........",
"......###aaa###aaaaaaaa###......",
".....##aaa#####aaaaaaaaaa##.....",
"....##aa#######aaaaaaaaaaa##....",
"....#aa########aaaaaaaaaaaa#....",
"...##a#########aaaaaaaaaaaa##...",
"...#aa#########aaaaaaaaaaaaa#...",
"..##a##########aaaaaaaaaaaaa##..",
"..#aa##########aaaaaaaaaaaaaa#..",
".##a###########aaaaaaaaaaaaaa##.",
".#aa###########aaaaaaaaaaaaaaa#.",
".#a############aaaaaaaaaaaaaaa#.",
".#a############aaaaaaaaaaaaaaa#.",
".#a############aaaaaaaaaaaaaaa#.",
".#a############aaaaaaaaaaaaaaa#.",
".#aa###########aaaaaaaaaaaaaaa#.",
".##a###########aaaaaaaaaaaaaa##.",
"..#aa##########aaaaaaaaaaaaaa#..",
"..##a##########aaaaaaaaaaaaa##..",
"...#aa#########aaaaaaaaaaaaa#...",
"...##a#########aaaaaaaaaaaa##...",
"....#aa########aaaaaaaaaaaa#....",
"....##aa#######aaaaaaaaaaa##....",
".....##aaa#####aaaaaaaaaa##.....",
"......###aaa###aaaaaaaa###......",
"........###aaa#aaaaaa###........",
"..........###aaaaaa###..........",
"............########............",
"................................"};
