/* XPM */
static char *dummy[]={
"32 32 3 1",
". c None",
"# c #000000",
"a c #ffffff",
"................................",
"............########............",
"..........###aaaaaa###..........",
"........###aaaaaaaaaa###........",
"......###aaaaaaaaaaaaaa###......",
".....##aaa##aaaaaaaaaaaaa##.....",
"....##aa####aaaaaaaaaaaaaa##....",
"....#aa#####aaaaaaaaaaaaaaa#....",
"...##a######aaaaaaaaaaaaaaa##...",
"...#aa######aaaaaaaaaaaaaaaa#...",
"..##a#######aaaaaaaaaaaaaaaa##..",
"..#aa#######aaaaaaaaaaaaaaaaa#..",
".##a########aaaaaaaaaaaaaaaaa##.",
".#aa########aaaaaaaaaaaaaaaaaa#.",
".#a#########aaaaaaaaaaaaaaaaaa#.",
".#a#########aaaaaaaaaaaaaaaaaa#.",
".#a#########aaaaaaaaaaaaaaaaaa#.",
".#a#########aaaaaaaaaaaaaaaaaa#.",
".#aa########aaaaaaaaaaaaaaaaaa#.",
".##a########aaaaaaaaaaaaaaaaa##.",
"..#aa#######aaaaaaaaaaaaaaaaa#..",
"..##a#######aaaaaaaaaaaaaaaa##..",
"...#aa######aaaaaaaaaaaaaaaa#...",
"...##a######aaaaaaaaaaaaaaa##...",
"....#aa#####aaaaaaaaaaaaaaa#....",
"....##aa####aaaaaaaaaaaaaa##....",
".....##aaa##aaaaaaaaaaaaa##.....",
"......###aaaaaaaaaaaaaa###......",
"........###aaaaaaaaaa###........",
"..........###aaaaaa###..........",
"............########............",
"................................"};
