/* XPM */
static char *dummy[]={
"32 32 4 1",
". c None",
"# c #282828",
"a c #fbf1c7",
"l c #fabd2f",
"................................",
"................................",
"................................",
"................................",
"................................",
"................................",
"................................",
"................................",
"................................",
"...#######################......",
"...#aaaaaaaaaaaaaaaaaaaaa#......",
"...#allllaaaaaaaaaaaaaaaa#......",
"...#allllaaaaaaaaaaaaaaaa##.....",
"...#allllaaaaaaaaaaaaaaaaa#.....",
"...#allllaaaaaaaaaaaaaaaaa#.....",
"...#allllaaaaaaaaaaaaaaaaa#.....",
"...#allllaaaaaaaaaaaaaaaaa#.....",
"...#allllaaaaaaaaaaaaaaaa##.....",
"...#allllaaaaaaaaaaaaaaaa#......",
"...#aaaaaaaaaaaaaaaaaaaaa#......",
"...#######################......",
"................................",
"................................",
"................................",
"................................",
"................................",
"................................",
"................................",
"................................",
"................................",
"................................",
"................................"};
