/* XPM */
static char *dummy[]={
"32 32 4 1",
". c None",
"# c #282828",
"a c #fbf1c7",
"l c #fb4934",
"................................",
"................................",
"................................",
"................................",
"................................",
"................................",
"................................",
"................................",
"................................",
"...#######################......",
"...#aaaaaaaaaaaaaaaaaaaaa#......",
"...#alaaaaaaaaaaaaaaaaaaa#......",
"...#alaaaaaaaaaaaaaaaaaaa##.....",
"...#alaaaaaaaaaaaaaaaaaaaa#.....",
"...#alaaaaaaaaaaaaaaaaaaaa#.....",
"...#alaaaaaaaaaaaaaaaaaaaa#.....",
"...#alaaaaaaaaaaaaaaaaaaaa#.....",
"...#alaaaaaaaaaaaaaaaaaaa##.....",
"...#alaaaaaaaaaaaaaaaaaaa#......",
"...#aaaaaaaaaaaaaaaaaaaaa#......",
"...#######################......",
"................................",
"................................",
"................................",
"................................",
"................................",
"................................",
"................................",
"................................",
"................................",
"................................",
"................................"};
