/* XPM */
static char *dummy[]={
"32 32 3 1",
". c None",
"# c #000000",
"a c #ffffff",
"................................",
"................................",
"................................",
"................................",
"................................",
"................................",
"................................",
"................................",
"................................",
"...#######################......",
"...#aaaaaaaaaaaaaaaaaaaaa#......",
"...#a#############aaaaaaa#......",
"...#a#############aaaaaaa##.....",
"...#a#############aaaaaaaa#.....",
"...#a#############aaaaaaaa#.....",
"...#a#############aaaaaaaa#.....",
"...#a#############aaaaaaaa#.....",
"...#a#############aaaaaaa##.....",
"...#a#############aaaaaaa#......",
"...#aaaaaaaaaaaaaaaaaaaaa#......",
"...#######################......",
"................................",
"................................",
"................................",
"................................",
"................................",
"................................",
"................................",
"................................",
"................................",
"................................",
"................................"};
