/* XPM */
static char *dummy[]={
"32 32 4 1",
". c None",
"# c #282828",
"a c #fbf1c7",
"l c #fb4934",
"................................",
"................................",
"................................",
"................................",
"................................",
"................................",
"................................",
"................................",
"................................",
"...#######################......",
"...#lllllllllllllllllllll#......",
"...#laaaaaaaaaaaaaaaaaaal#......",
"...#laaaaaaaaaaaaaaaaaaal##.....",
"...#laaaaaaaaaaaaaaaaaaall#.....",
"...#laaaaaaaaaaaaaaaaaaaal#.....",
"...#laaaaaaaaaaaaaaaaaaaal#.....",
"...#laaaaaaaaaaaaaaaaaaall#.....",
"...#laaaaaaaaaaaaaaaaaaal##.....",
"...#laaaaaaaaaaaaaaaaaaal#......",
"...#lllllllllllllllllllll#......",
"...#######################......",
"................................",
"................................",
"................................",
"................................",
"................................",
"................................",
"................................",
"................................",
"................................",
"................................",
"................................"};
