/* XPM */
static char *dummy[]={
"32 32 3 1",
". c None",
"# c #282828",
"a c #fbf1c7",
"................................",
"................................",
"................................",
"................................",
"................................",
"................................",
"................................",
"................................",
"................................",
"...#######################......",
"...#aaaaaaaaaaaaaaaaaaaaa#......",
"...#a###########aaaaaaaaa#......",
"...#a###########aaaaaaaaa##.....",
"...#a###########aaaaaaaaaa#.....",
"...#a###########aaaaaaaaaa#.....",
"...#a###########aaaaaaaaaa#.....",
"...#a###########aaaaaaaaaa#.....",
"...#a###########aaaaaaaaa##.....",
"...#a###########aaaaaaaaa#......",
"...#aaaaaaaaaaaaaaaaaaaaa#......",
"...#######################......",
"................................",
"................................",
"................................",
"................................",
"................................",
"................................",
"................................",
"................................",
"................................",
"................................",
"................................"};
