/* XPM */
static char *dummy[]={
"32 32 3 1",
". c None",
"# c #000000",
"a c #ffffff",
"................................",
"................................",
"................................",
"................................",
"................................",
"................................",
"................................",
"................................",
"................................",
"...#######################......",
"...#aaaaaaaaaaaaaaaaaaaaa#......",
"...#a################aaaa#......",
"...#a################aaaa##.....",
"...#a################aaaaa#.....",
"...#a################aaaaa#.....",
"...#a################aaaaa#.....",
"...#a################aaaaa#.....",
"...#a################aaaa##.....",
"...#a################aaaa#......",
"...#aaaaaaaaaaaaaaaaaaaaa#......",
"...#######################......",
"................................",
"................................",
"................................",
"................................",
"................................",
"................................",
"................................",
"................................",
"................................",
"................................",
"................................"};
