/* XPM */
static char *dummy[]={
"32 32 3 1",
". c None",
"# c #282828",
"a c #fbf1c7",
"................................",
"................................",
"................................",
"................................",
"................................",
"................................",
"................................",
"................................",
"................................",
"...#######################......",
"...#aaaaaaaaaaaaaaaaaaaaa#......",
"...#aaaaaaaaaaaaaaaaaaaaa#......",
"...#aaaaaaaaaaaaaaaaaaaaa##.....",
"...#aaaaaaaaaaaaaaaaaaaaaa#.....",
"...#aaaaaaaaaaaaaaaaaaaaaa#.....",
"...#aaaaaaaaaaaaaaaaaaaaaa#.....",
"...#aaaaaaaaaaaaaaaaaaaaaa#.....",
"...#aaaaaaaaaaaaaaaaaaaaa##.....",
"...#aaaaaaaaaaaaaaaaaaaaa#......",
"...#aaaaaaaaaaaaaaaaaaaaa#......",
"...#######################......",
"................................",
"................................",
"................................",
"................................",
"................................",
"................................",
"................................",
"................................",
"................................",
"................................",
"................................"};
