/* XPM */
static char *dummy[]={
"32 32 3 1",
". c None",
"# c #000000",
"a c #ffffff",
"................................",
"................................",
"................................",
"................................",
"................................",
"................................",
"................................",
"................................",
"................................",
"...#######################......",
"...#aaaaaaaaaaaaaaaaaaaaa#......",
"...#a##aaaaaaaaaaaaaaaaaa#......",
"...#a##aaaaaaaaaaaaaaaaaa##.....",
"...#a##aaaaaaaaaaaaaaaaaaa#.....",
"...#a##aaaaaaaaaaaaaaaaaaa#.....",
"...#a##aaaaaaaaaaaaaaaaaaa#.....",
"...#a##aaaaaaaaaaaaaaaaaaa#.....",
"...#a##aaaaaaaaaaaaaaaaaa##.....",
"...#a##aaaaaaaaaaaaaaaaaa#......",
"...#aaaaaaaaaaaaaaaaaaaaa#......",
"...#######################......",
"................................",
"................................",
"................................",
"................................",
"................................",
"................................",
"................................",
"................................",
"................................",
"................................",
"................................"};
