/* XPM */
static char *dummy[]={
"32 32 3 1",
". c None",
"# c #000000",
"a c #ffffff",
"................................",
"................................",
"................................",
"................................",
"................................",
"................................",
"................................",
"................................",
"................................",
"...#######################......",
"...#aaaaaaaaaaaaaaaaaaaaa#......",
"...#a####aaaaaaaaaaaaaaaa#......",
"...#a####aaaaaaaaaaaaaaaa##.....",
"...#a####aaaaaaaaaaaaaaaaa#.....",
"...#a####aaaaaaaaaaaaaaaaa#.....",
"...#a####aaaaaaaaaaaaaaaaa#.....",
"...#a####aaaaaaaaaaaaaaaaa#.....",
"...#a####aaaaaaaaaaaaaaaa##.....",
"...#a####aaaaaaaaaaaaaaaa#......",
"...#aaaaaaaaaaaaaaaaaaaaa#......",
"...#######################......",
"................................",
"................................",
"................................",
"................................",
"................................",
"................................",
"................................",
"................................",
"................................",
"................................",
"................................"};
