/* XPM */
static char *dummy[]={
"32 32 4 1",
". c None",
"# c #282828",
"a c #fbf1c7",
"l c #fe8019",
"................................",
"................................",
"................................",
"................................",
"................................",
"................................",
"................................",
"................................",
"................................",
"...#######################......",
"...#aaaaaaaaaaaaaaaaaaaaa#......",
"...#allaaaaaaaaaaaaaaaaaa#......",
"...#allaaaaaaaaaaaaaaaaaa##.....",
"...#allaaaaaaaaaaaaaaaaaaa#.....",
"...#allaaaaaaaaaaaaaaaaaaa#.....",
"...#allaaaaaaaaaaaaaaaaaaa#.....",
"...#allaaaaaaaaaaaaaaaaaaa#.....",
"...#allaaaaaaaaaaaaaaaaaa##.....",
"...#allaaaaaaaaaaaaaaaaaa#......",
"...#aaaaaaaaaaaaaaaaaaaaa#......",
"...#######################......",
"................................",
"................................",
"................................",
"................................",
"................................",
"................................",
"................................",
"................................",
"................................",
"................................",
"................................"};
