/* XPM */
static char *dummy[]={
"32 32 3 1",
". c None",
"# c #282828",
"a c #fbf1c7",
"................................",
"................................",
"................................",
"................................",
"................................",
"................................",
"................................",
"................................",
"................................",
"...#######################......",
"...#aaaaaaaaaaaaaaaaaaaaa#......",
"...#a#############aaaaaaa#......",
"...#a#########aaaa###aaaa##.....",
"...#a#########aaaa####aaaa#.....",
"...#a#aaaaaaaaaaaa###aaaaa#.....",
"...#a#aaaaaaaaaaaa###aaaaa#.....",
"...#a#########aaaa####aaaa#.....",
"...#a#########aaaa###aaaa##.....",
"...#a#############aaaaaaa#......",
"...#aaaaaaaaaaaaaaaaaaaaa#......",
"...#######################......",
"................................",
"................................",
"................................",
"................................",
"................................",
"................................",
"................................",
"................................",
"................................",
"................................",
"................................"};
