/* XPM */
static char *dummy[]={
"32 32 4 1",
". c None",
"b c #282828",
"# c #282828",
"a c #fbf1c7",
"................................",
"................................",
"................................",
"................................",
"................................",
"................................",
"................................",
"................................",
"................................",
"...#######################......",
"...#aaaaaaaaaaaaaaaaaaaaa#......",
"...#a#########bbaaaaaaaaa#......",
"...#a#########aa#####aaaa##.....",
"...#a#########aa######aaaa#.....",
"...#a#aaaaaaaaaa#####aaaaa#.....",
"...#a#aaaaaaaaaa#####aaaaa#.....",
"...#a#########aa######aaaa#.....",
"...#a#########aa#####aaaa##.....",
"...#a#########bbaaaaaaaaa#......",
"...#aaaaaaaaaaaaaaaaaaaaa#......",
"...#######################......",
"................................",
"................................",
"................................",
"................................",
"................................",
"................................",
"................................",
"................................",
"................................",
"................................",
"................................"};
