/* XPM */
static char *dummy[]={
"32 32 3 1",
". c None",
"# c #000000",
"a c #ffffff",
"................................",
"................................",
"................................",
"................................",
"................................",
"................................",
"................................",
"................................",
"................................",
"...#######################......",
"...#aaaaaaaaaaaaaaaaaaaaa#......",
"...#a####aaaaaaaaaaaaaaaa#......",
"...#a####aaaaa#######aaaa##.....",
"...#a####aaaaa########aaaa#.....",
"...#a#aaa############aaaaa#.....",
"...#a#aaa############aaaaa#.....",
"...#a####aaaaa########aaaa#.....",
"...#a####aaaaa#######aaaa##.....",
"...#a####aaaaaaaaaaaaaaaa#......",
"...#aaaaaaaaaaaaaaaaaaaaa#......",
"...#######################......",
"................................",
"................................",
"................................",
"................................",
"................................",
"................................",
"................................",
"................................",
"................................",
"................................",
"................................"};
