/* XPM */
static char *dummy[]={
"32 32 3 1",
". c None",
"# c #282828",
"a c #fbf1c7",
"................................",
"................................",
"................................",
"................................",
"................................",
"................................",
"................................",
"................................",
"................................",
"...#######################......",
"...#aaaaaaaaaaaaaaaaaaaaa#......",
"...#a##aaaaaaaaaaaaaaaaaa#......",
"...#a##aaaaaaa#######aaaa##.....",
"...#a##aaaaaaa########aaaa#.....",
"...#a#a##############aaaaa#.....",
"...#a#a##############aaaaa#.....",
"...#a##aaaaaaa########aaaa#.....",
"...#a##aaaaaaa#######aaaa##.....",
"...#a##aaaaaaaaaaaaaaaaaa#......",
"...#aaaaaaaaaaaaaaaaaaaaa#......",
"...#######################......",
"................................",
"................................",
"................................",
"................................",
"................................",
"................................",
"................................",
"................................",
"................................",
"................................",
"................................"};
