/* XPM */
static char *dummy[]={
"32 32 3 1",
". c None",
"# c #282828",
"a c #fbf1c7",
"................................",
"................................",
"................................",
"................................",
"................................",
"................................",
"................................",
"................................",
"................................",
"...#######################......",
"...#aaaaaaaaaaaaaaaaaaaaa#......",
"...#aaaaaaaaaaaaaaaaaaaaa#......",
"...#aaaaaaaaaa#######aaaa##.....",
"...#aaaaaaaaaa########aaaa#.....",
"...#aa###############aaaaa#.....",
"...#aa###############aaaaa#.....",
"...#aaaaaaaaaa########aaaa#.....",
"...#aaaaaaaaaa#######aaaa##.....",
"...#aaaaaaaaaaaaaaaaaaaaa#......",
"...#aaaaaaaaaaaaaaaaaaaaa#......",
"...#######################......",
"................................",
"................................",
"................................",
"................................",
"................................",
"................................",
"................................",
"................................",
"................................",
"................................",
"................................"};
