/* XPM */
static char *dummy[]={
"32 32 3 1",
". c None",
"# c #282828",
"a c #fbf1c7",
"................................",
"................................",
"................................",
"................................",
"................................",
"................................",
"................................",
"................................",
"................................",
"...#######################......",
"...#aaaaaaaaaaaaaaaaaaaaa#......",
"...#a#########aaaaaaaaaaa#......",
"...#a################aaaa##.....",
"...#a#################aaaa#.....",
"...#a#aaaaaaaa#######aaaaa#.....",
"...#a#aaaaaaaa#######aaaaa#.....",
"...#a#################aaaa#.....",
"...#a################aaaa##.....",
"...#a#########aaaaaaaaaaa#......",
"...#aaaaaaaaaaaaaaaaaaaaa#......",
"...#######################......",
"................................",
"................................",
"................................",
"................................",
"................................",
"................................",
"................................",
"................................",
"................................",
"................................",
"................................"};
